<?xml version="1.0" encoding="UTF-8"?>
<svg id="_Слой_1" data-name="Слой 1" xmlns="http://www.w3.org/2000/svg" viewBox="0 0 2503.18 2314.4">
  <defs>
    <style>
      .cls-1 {
        fill: #271c1d;
      }

      .cls-1, .cls-2, .cls-3, .cls-4, .cls-5, .cls-6, .cls-7 {
        stroke-width: 0px;
      }

      .cls-2 {
        fill: #281d1d;
      }

      .cls-3 {
        fill: #191818;
      }

      .cls-4 {
        fill: #1e191a;
      }

      .cls-5 {
        fill: #fff;
      }

      .cls-6 {
        fill: #f0bd45;
      }

      .cls-7 {
        fill: #efbb45;
      }
    </style>
  </defs>
  <path class="cls-7" d="m3.48.3C832.48.3,1661.48.3,2490.48,0c10.4,0,12.7,2.3,12.7,12.7-.3,766.2-.3,1532.3-.3,2298.5-4.8,2.6-10,1.3-15,1.3-822.9.1-1645.9.1-2468.8,0-19,0-17,2-17-17V15.2c.1-4.9-1.2-10.1,1.4-14.9Z"/>
  <path class="cls-5" d="m3.48.3v2292.7q0,18.3,18.3,18.3h2481.2c-.6.9,1.4,2.9-1.4,2.8-3.7-.1-7.4,0-11.1,0-825.8,0-1651.5,0-2477.3.3-10.4,0-12.7-2.3-12.7-12.7C.78,1538.8.78,775.8.88,12.9c0-4.2-3.2-9.5,2.6-12.6Z"/>
  <path class="cls-3" d="m2283.08,1210.1c-3.4,562.6-454.3,992.6-990.8,993.1-545.5.5-986.7-447.2-991.7-988.5-5.3-558.6,464.4-997.4,994.4-996.4,538.1.9,985.2,439.1,988.1,991.8Z"/>
  <path class="cls-6" d="m1274.38,2120.2c-205.3-2.7-389.4-66-549.4-195.2-168.2-135.8-276.3-309.6-322.6-521.3-21.5-98.2-27.4-197.3-16.1-297.2,17.2-151.6,68.4-290.8,154.1-417.2,40.6-59.9,88.1-114.1,141.8-162.4,116.4-104.6,250.7-176,403.8-210.6,78.3-17.7,157.7-25.4,237.8-21,158.5,8.6,305,55.5,437.5,143.4,142.6,94.6,250.4,219.8,322.6,374.9,48.9,105.1,76.8,215.9,83.9,331.9,13.7,223.2-43.8,426.3-176.2,606-123.4,167.5-285.3,282.9-487.4,338.2-75,20.6-151.6,31.5-229.8,30.5Z"/>
  <path class="cls-2" d="m1283.48,365.9c110.9-.4,222.2,25.1,328.6,74.8,93,43.5,175,102.5,246.8,175.2,53.6,54.3,98.6,115.6,135.9,182.4,49.8,89.1,83.8,183.8,99.1,284.7,22.5,148.5,5.2,292.8-50.4,432.2-48.3,121.1-121.1,226-217.5,313.5-117.7,106.9-254.8,176.8-412,204.4-166.7,29.2-327.2,8.2-481-62.9-71.6-33.1-136.5-76.2-195.9-128.2-87.1-76.3-154-167.5-203.4-271.7-45.2-95.2-70.7-195.5-78.7-300.8-10.3-136.2,10.6-267.2,63.8-392.5,34.5-81.4,81-155.7,139.1-223.1,77.8-90.3,170.3-160.4,277.7-211.2,108.1-51,221.9-76.7,347.9-76.8Z"/>
  <path class="cls-6" d="m2044.18,1204c-4.4,216.1-78.4,403.9-229.8,559.6-104.9,107.8-231.2,178.4-378,210.9-72.9,16.1-147,20.1-221.8,13-143.7-13.5-273.7-62.4-389.7-148-105.5-77.8-185.5-176.6-241.7-294.9-60.8-128.1-85-263.3-73.8-404.1,13.3-167,75.5-314.7,184.8-442.2,115.4-134.6,259.7-221.7,433.3-258.2,83.7-17.6,168.4-20.3,253.5-7.8,150.3,21.9,282.9,82.4,396.7,182.7,133.8,118,217.4,265.3,252.4,440.1,9.8,49,14.2,98.7,14.1,148.9Z"/>
  <path class="cls-4" d="m836.68,1638.6c19.8-38.1,43.1-74.3,67.3-109.7,66.9-97.9,141-190.2,218.4-279.8,77.2-89.4,154.8-178.5,231.9-268.1,22-25.5,42.7-52,64.3-77.9,4.8-5.8,5.6-9.9-1.6-14-7.6-4.4-15.1-9.6-24.1-9.1-24.9,1.5-49.6-3-74.4-2.7-18.6.2-26.8-9.6-23.8-28,4.2-25.3,22.8-40.5,48.7-41.7,76.7-3.6,153.4-2,230.1-4.3,55-1.7,109.9,2.5,164.8,4.7,20.9.8,26.4,11.9,16.8,30.5-5,9.8-9.5,19.9-15.7,28.9-7.8,11.4-21.2,11.3-32.2,9.1-96.8-19.5-174,14.2-238.2,85.5-32.1,35.7-60.7,74-89.2,113.3,15.7,7.1,31.8,7.9,47.4,9.4,36.8,3.6,73.6,3.2,110.6,1.2,39.6-2.2,79.4-.7,119.1-.9,8.5,0,13.7,4.3,17.2,11.5,7.7,16.1,1.5,37.6-13.5,47.6-9,5.9-18.8,9.7-29.4,10.4-71.5,4.2-143,7.5-214.7,5.3-38.2-1.2-53.3,12.8-53.9,50.7-.2,17.6-.3,35.1.1,52.7.4,24.9,15.6,40.7,40.2,41.2,63.3,1.1,126.6-1.9,189.8,2.5,3.2.2,6.5,0,9.7.3,11,1.2,22.5,2.4,27.9,14,5.2,11.1-3.2,18.9-8.4,27.4-24.8,40.2-63.7,42.7-104.6,38.1-10.2-1.1-20.2-1.6-30.3-1.3-22.1.5-44.5,0-66.4,2.8-43.6,5.6-55.3,17.1-57.6,63.8-2.1,41.5-.4,83.1-.4,124.7,0,6-.7,11.8-2.1,17.7-7.3,30.1-19.6,39.8-49.5,37.4-19.3-1.5-30.3-17.6-31.7-44.6-.9-17.7,2.8-35,2.8-52.5.1-110.9,0-221.9-.1-332.8,0-4-.5-7.9-1.1-15.4-150.6,150.7-282.3,316.1-444.2,452.1Z"/>
  <path class="cls-1" d="m954.98,957.4v133.5c0,60.1-.3,120.2.2,180.3.2,24.6-12.8,42.7-28.2,59.3-9.5,10.2-28.3,4.8-36-9.3-3.8-6.9-5.4-14.5-5.4-22.5,0-156.7-4-313.4-2.9-470.1.1-19.9,5.1-37.3,18-52.1,12.8-14.6,25.7-29.2,39.6-42.6,15.5-15,26.8-11.6,34.5,9.3,10.2,27.9,19.3,56.2,30.1,83.9,31.1,79.9,74.3,152.7,130.4,217.7,23,26.7,22.3,47-3.1,71.9-34.1,33.4-48.4,30.8-68.1-12.7-24.3-53.9-58.2-101-100.6-142.1-1.9-1.9-3.2-4.7-8.5-4.5Z"/>
</svg>