<svg width="1920" height="1280" viewBox="0 0 1920 1280" fill="none" xmlns="http://www.w3.org/2000/svg">
<line x1="-8.74228e-08" y1="924.006" x2="1920" y2="924.006" stroke="#FEBE16" stroke-opacity="0.25" stroke-width="2" stroke-dasharray="20 20"/>
<line x1="-8.74228e-08" y1="954.006" x2="1920" y2="954.006" stroke="#FEBE16" stroke-opacity="0.25" stroke-width="2" stroke-dasharray="20 20"/>
<line x1="-8.74228e-08" y1="984.006" x2="1920" y2="984.006" stroke="#FEBE16" stroke-opacity="0.25" stroke-width="2" stroke-dasharray="20 20"/>
<line x1="-8.74228e-08" y1="1014.01" x2="1920" y2="1014.01" stroke="#FEBE16" stroke-opacity="0.25" stroke-width="2" stroke-dasharray="20 20"/>
<line x1="-8.74228e-08" y1="1044.01" x2="1920" y2="1044.01" stroke="#FEBE16" stroke-opacity="0.25" stroke-width="2" stroke-dasharray="20 20"/>
<line x1="-8.74228e-08" y1="1074.01" x2="1920" y2="1074.01" stroke="#FEBE16" stroke-opacity="0.25" stroke-width="2" stroke-dasharray="20 20"/>
<line x1="-8.74228e-08" y1="1104.01" x2="1920" y2="1104.01" stroke="#FEBE16" stroke-opacity="0.25" stroke-width="2" stroke-dasharray="20 20"/>
<line x1="-8.74228e-08" y1="1134.01" x2="1920" y2="1134.01" stroke="#FEBE16" stroke-opacity="0.25" stroke-width="2" stroke-dasharray="20 20"/>
<line x1="-8.74228e-08" y1="1164.01" x2="1920" y2="1164.01" stroke="#FEBE16" stroke-opacity="0.25" stroke-width="2" stroke-dasharray="20 20"/>
<line x1="-8.74228e-08" y1="1194.01" x2="1920" y2="1194.01" stroke="#FEBE16" stroke-opacity="0.25" stroke-width="2" stroke-dasharray="20 20"/>
<line x1="-8.74228e-08" y1="1224.01" x2="1920" y2="1224.01" stroke="#FEBE16" stroke-opacity="0.25" stroke-width="2" stroke-dasharray="20 20"/>
<line x1="-8.74228e-08" y1="1254.01" x2="1920" y2="1254.01" stroke="#FEBE16" stroke-opacity="0.25" stroke-width="2" stroke-dasharray="20 20"/>
<line x1="-8.74228e-08" y1="894.006" x2="1920" y2="894.006" stroke="#FEBE16" stroke-opacity="0.25" stroke-width="2" stroke-dasharray="20 20"/>
<line x1="-8.74228e-08" y1="864.006" x2="1920" y2="864.005" stroke="#FEBE16" stroke-opacity="0.25" stroke-width="2" stroke-dasharray="20 20"/>
<line x1="-8.74228e-08" y1="834.005" x2="1920" y2="834.005" stroke="#FEBE16" stroke-opacity="0.25" stroke-width="2" stroke-dasharray="20 20"/>
<line x1="-8.74228e-08" y1="804.005" x2="1920" y2="804.005" stroke="#FEBE16" stroke-opacity="0.25" stroke-width="2" stroke-dasharray="20 20"/>
<line x1="-8.74228e-08" y1="774.005" x2="1920" y2="774.005" stroke="#FEBE16" stroke-opacity="0.25" stroke-width="2" stroke-dasharray="20 20"/>
<line x1="-8.74228e-08" y1="744.005" x2="1920" y2="744.005" stroke="#FEBE16" stroke-opacity="0.25" stroke-width="2" stroke-dasharray="20 20"/>
<line x1="-8.74228e-08" y1="714.005" x2="1920" y2="714.005" stroke="#FEBE16" stroke-opacity="0.25" stroke-width="2" stroke-dasharray="20 20"/>
<line x1="-8.74228e-08" y1="684.005" x2="1920" y2="684.004" stroke="#FEBE16" stroke-opacity="0.25" stroke-width="2" stroke-dasharray="20 20"/>
<line x1="-8.74228e-08" y1="654.004" x2="1920" y2="654.004" stroke="#FEBE16" stroke-opacity="0.25" stroke-width="2" stroke-dasharray="20 20"/>
<line x1="-8.74228e-08" y1="624.004" x2="1920" y2="624.004" stroke="#FEBE16" stroke-opacity="0.25" stroke-width="2" stroke-dasharray="20 20"/>
<line x1="-8.74228e-08" y1="594.004" x2="1920" y2="594.004" stroke="#FEBE16" stroke-opacity="0.25" stroke-width="2" stroke-dasharray="20 20"/>
<line x1="-8.74228e-08" y1="564.004" x2="1920" y2="564.004" stroke="#FEBE16" stroke-opacity="0.25" stroke-width="2" stroke-dasharray="20 20"/>
<line x1="-8.74228e-08" y1="534.004" x2="1920" y2="534.003" stroke="#FEBE16" stroke-opacity="0.25" stroke-width="2" stroke-dasharray="20 20"/>
<line x1="-8.74228e-08" y1="504.003" x2="1920" y2="504.003" stroke="#FEBE16" stroke-opacity="0.25" stroke-width="2" stroke-dasharray="20 20"/>
<line x1="-8.74228e-08" y1="474.003" x2="1920" y2="474.003" stroke="#FEBE16" stroke-opacity="0.25" stroke-width="2" stroke-dasharray="20 20"/>
<line x1="-8.74228e-08" y1="444.003" x2="1920" y2="444.003" stroke="#FEBE16" stroke-opacity="0.25" stroke-width="2" stroke-dasharray="20 20"/>
<line x1="-8.74228e-08" y1="414.003" x2="1920" y2="414.003" stroke="#FEBE16" stroke-opacity="0.25" stroke-width="2" stroke-dasharray="20 20"/>
<line x1="-8.74228e-08" y1="384.003" x2="1920" y2="384.003" stroke="#FEBE16" stroke-opacity="0.25" stroke-width="2" stroke-dasharray="20 20"/>
<line x1="-8.74228e-08" y1="354.003" x2="1920" y2="354.002" stroke="#FEBE16" stroke-opacity="0.25" stroke-width="2" stroke-dasharray="20 20"/>
<line x1="-8.74228e-08" y1="324.002" x2="1920" y2="324.002" stroke="#FEBE16" stroke-opacity="0.25" stroke-width="2" stroke-dasharray="20 20"/>
<line x1="-8.74228e-08" y1="294.002" x2="1920" y2="294.002" stroke="#FEBE16" stroke-opacity="0.25" stroke-width="2" stroke-dasharray="20 20"/>
<line x1="-8.74228e-08" y1="264.002" x2="1920" y2="264.002" stroke="#FEBE16" stroke-opacity="0.25" stroke-width="2" stroke-dasharray="20 20"/>
<line x1="-8.74228e-08" y1="234.002" x2="1920" y2="234.002" stroke="#FEBE16" stroke-opacity="0.25" stroke-width="2" stroke-dasharray="20 20"/>
<line x1="-8.74228e-08" y1="204.002" x2="1920" y2="204.001" stroke="#FEBE16" stroke-opacity="0.25" stroke-width="2" stroke-dasharray="20 20"/>
<line x1="-8.74228e-08" y1="174.001" x2="1920" y2="174.001" stroke="#FEBE16" stroke-opacity="0.25" stroke-width="2" stroke-dasharray="20 20"/>
<line x1="-8.74228e-08" y1="144.001" x2="1920" y2="144.001" stroke="#FEBE16" stroke-opacity="0.25" stroke-width="2" stroke-dasharray="20 20"/>
<line x1="-8.74228e-08" y1="114.001" x2="1920" y2="114.001" stroke="#FEBE16" stroke-opacity="0.25" stroke-width="2" stroke-dasharray="20 20"/>
<line x1="-8.74228e-08" y1="84.001" x2="1920" y2="84.0008" stroke="#FEBE16" stroke-opacity="0.25" stroke-width="2" stroke-dasharray="20 20"/>
<line x1="-8.74228e-08" y1="54.0009" x2="1920" y2="54.0007" stroke="#FEBE16" stroke-opacity="0.25" stroke-width="2" stroke-dasharray="20 20"/>
<line x1="-8.74228e-08" y1="24.0007" x2="1920" y2="24.0006" stroke="#FEBE16" stroke-opacity="0.25" stroke-width="2" stroke-dasharray="20 20"/>
</svg>
