<svg width="96" height="96" viewBox="0 0 96 96" fill="none" xmlns="http://www.w3.org/2000/svg">
<rect width="95.2377" height="95.2377" rx="3" fill="#FEBE16"/>
<rect x="17" y="16" width="62" height="69" rx="4" fill="black"/>
<mask id="mask0_160_23" style="mask-type:alpha" maskUnits="userSpaceOnUse" x="0" y="0" width="96" height="96">
<path d="M47.6188 0C21.3223 0 0 21.3223 0 47.6188C0 67.7928 12.5512 85.0235 30.2654 91.9593C29.8497 88.1938 29.4724 82.4117 30.4321 78.3C31.2966 74.5858 36.0163 54.6298 36.0163 54.6298C36.0163 54.6298 34.5914 51.7763 34.5914 47.5621C34.5914 40.9394 38.4284 35.998 43.2068 35.998C47.2709 35.998 49.2306 39.0493 49.2306 42.7049C49.2306 46.7928 46.6317 52.899 45.2855 58.5584C44.1628 63.3001 47.6628 67.1664 52.3368 67.1664C60.8001 67.1664 67.3056 58.2415 67.3056 45.3606C67.3056 33.9596 59.1151 25.9871 47.4174 25.9871C33.8698 25.9871 25.9175 36.15 25.9175 46.6536C25.9175 50.7452 27.4926 55.1335 29.4614 57.5217C29.8497 57.9943 29.9065 58.4063 29.7911 58.8862C29.4303 60.3898 28.6281 63.6243 28.4687 64.2873C28.2618 65.1609 27.7783 65.3422 26.8772 64.9228C20.9285 62.1536 17.2105 53.4595 17.2105 46.4742C17.2105 31.4541 28.1226 17.6574 48.6756 17.6574C65.1957 17.6574 78.0326 29.4266 78.0326 45.161C78.0326 61.573 67.6829 74.7799 53.3221 74.7799C48.4961 74.7799 43.9613 72.2726 42.4101 69.3111C42.4101 69.3111 40.0218 78.4026 39.4412 80.6315C38.3661 84.767 35.465 89.9538 33.52 93.115C37.976 94.4923 42.7104 95.2377 47.6188 95.2377C73.9154 95.2377 95.2377 73.9154 95.2377 47.6188C95.2377 21.3223 73.9173 0 47.6188 0Z" fill="black"/>
</mask>
<g mask="url(#mask0_160_23)">
<rect x="-21.9773" y="-12.8214" width="177.655" height="137.362" fill="#FEBE16"/>
</g>
</svg>
