<svg width="100" height="100" viewBox="0 0 100 100" fill="none" xmlns="http://www.w3.org/2000/svg">
<rect width="100" height="100" rx="3" fill="#FEBE16"/>
<mask id="mask0_160_28" style="mask-type:alpha" maskUnits="userSpaceOnUse" x="20" y="20" width="60" height="55">
<path d="M78.867 20.7504C77.8435 19.8825 76.236 19.7583 74.5739 20.4256H74.5711C72.8231 21.127 25.0884 41.6019 23.1452 42.4384C22.7918 42.5612 19.705 43.7129 20.0229 46.2784C20.3068 48.5915 22.7877 49.5495 23.0906 49.66L35.2262 53.8153C36.0314 56.4954 38.9994 66.3835 39.6558 68.4959C40.0652 69.8128 40.7325 71.5431 41.902 71.8993C42.9282 72.295 43.9489 71.9334 44.6094 71.4149L52.0289 64.5331L64.0062 73.8739L64.2914 74.0445C65.1047 74.4048 65.8839 74.5849 66.6276 74.5849C67.2022 74.5849 67.7535 74.4771 68.2802 74.2615C70.0747 73.5246 70.7925 71.8147 70.8675 71.6209L79.814 25.1186C80.3599 22.6349 79.6012 21.3713 78.867 20.7504ZM45.929 55.4774L41.8351 66.3944L37.7412 52.7481L69.1276 29.5495L45.929 55.4774Z" fill="black"/>
</mask>
<g mask="url(#mask0_160_28)">
<rect x="7.71729" y="9.7644" width="115.993" height="108.488" fill="black"/>
</g>
</svg>
