<svg width="49" height="49" viewBox="0 0 49 49" fill="none" xmlns="http://www.w3.org/2000/svg">
<rect width="48.9996" height="48.9996" rx="3" fill="#FEBE16"/>
<mask id="mask0_157_79" style="mask-type:alpha" maskUnits="userSpaceOnUse" x="0" y="0" width="49" height="49">
<path d="M7.48626 0C3.37604 0 0.000210337 3.37583 0.000210337 7.48605V11.7873C-0.00361581 12.0579 0.0463661 12.3265 0.147252 12.5775C0.248137 12.8286 0.397914 13.0571 0.587878 13.2498C0.777843 13.4424 1.00421 13.5954 1.25381 13.6999C1.50342 13.8043 1.77129 13.8581 2.04186 13.8581C2.31243 13.8581 2.5803 13.8043 2.82991 13.6999C3.07951 13.5954 3.30588 13.4424 3.49584 13.2498C3.68581 13.0571 3.83558 12.8286 3.93647 12.5775C4.03735 12.3265 4.08734 12.0579 4.08351 11.7873V7.48605C4.08351 5.58292 5.58313 4.0833 7.48626 4.0833H41.5137C43.4169 4.0833 44.9165 5.58292 44.9165 7.48605V25.8609C44.9127 26.1314 44.9627 26.4 45.0635 26.6511C45.1644 26.9022 45.3142 27.1307 45.5042 27.3233C45.6941 27.516 45.9205 27.669 46.1701 27.7734C46.4197 27.8778 46.6876 27.9316 46.9581 27.9316C47.2287 27.9316 47.4966 27.8778 47.7462 27.7734C47.9958 27.669 48.2222 27.516 48.4121 27.3233C48.6021 27.1307 48.7519 26.9022 48.8528 26.6511C48.9536 26.4 49.0036 26.1314 48.9998 25.8609V7.48605C48.9998 3.37583 45.624 0 41.5137 0H7.48626ZM24.7207 8.16926C19.9309 8.20192 16.2403 9.82431 13.7468 12.9916C11.55 15.7859 10.4154 19.6539 10.3759 24.5157C10.414 29.349 11.5486 33.215 13.7468 36.008C16.239 39.1753 19.9317 40.7977 24.7472 40.8303C29.0048 40.8017 32.0141 39.6764 34.5036 37.1883C37.811 33.8836 37.7073 29.7381 36.6143 27.1901C35.8249 25.3499 34.3321 23.8608 32.2918 22.8835C32.2441 22.859 32.1946 22.8375 32.1456 22.8144C31.7862 18.2139 29.1322 15.5696 24.7685 15.541C22.1225 15.541 19.9169 16.6782 18.5558 18.7444C18.4034 18.9757 18.464 19.2869 18.6941 19.4462L20.9643 21.004C21.0773 21.0816 21.2164 21.1096 21.3498 21.0838C21.4832 21.0579 21.6046 20.9774 21.6794 20.8631C22.5015 19.6177 23.8135 19.3585 24.8057 19.3585C26.0117 19.3653 26.9073 19.6994 27.4694 20.3527C27.773 20.7052 28.0053 21.1663 28.1659 21.7271C27.1356 21.6032 26.0395 21.574 24.8934 21.6394C20.6659 21.883 17.9467 24.3875 18.1331 27.8733C18.2271 29.6509 19.1119 31.1822 20.6241 32.1826C21.8735 33.006 23.4786 33.4143 25.146 33.3204C27.3523 33.1992 29.0878 32.3506 30.3059 30.7975C31.0859 29.8053 31.6122 28.5863 31.909 27.0891C32.4833 27.5532 32.905 28.0968 33.169 28.7134C33.7883 30.1534 33.8208 32.5251 31.8717 34.4714C30.1105 36.2313 27.9746 36.995 24.7393 37.0182C21.1432 36.991 18.4346 35.85 16.687 33.6287C15.0278 31.519 14.1689 28.4482 14.1376 24.5051C14.1689 20.5538 15.0278 17.4806 16.687 15.3709C18.4346 13.1495 21.1434 12.0073 24.7313 11.9814C28.3586 12.0086 31.118 13.1571 32.9351 15.3948C33.8239 16.4891 34.5049 17.8751 34.9581 19.518C35.033 19.7875 35.3134 19.9463 35.5829 19.8768L38.2439 19.167C38.3759 19.133 38.4869 19.0448 38.555 18.9278C38.6216 18.808 38.6382 18.669 38.6028 18.537C38.0162 16.3797 37.085 14.5071 35.8328 12.9677C33.2712 9.81672 29.543 8.20192 24.7207 8.16926ZM2.00996 17.5348C1.46894 17.5432 0.953403 17.7661 0.576576 18.1544C0.199748 18.5427 -0.00755089 19.0647 0.000210337 19.6057V41.5135C0.000210337 45.6238 3.37604 48.9996 7.48626 48.9996H41.5137C45.624 48.9996 48.9998 45.6238 48.9998 41.5135V36.4599C49.0036 36.1894 48.9536 35.9208 48.8528 35.6697C48.7519 35.4187 48.6021 35.1902 48.4121 34.9975C48.2222 34.8048 47.9958 34.6518 47.7462 34.5474C47.4966 34.443 47.2287 34.3892 46.9581 34.3892C46.6876 34.3892 46.4197 34.443 46.1701 34.5474C45.9205 34.6518 45.6941 34.8048 45.5042 34.9975C45.3142 35.1902 45.1644 35.4187 45.0635 35.6697C44.9627 35.9208 44.9127 36.1894 44.9165 36.4599V41.5135C44.9165 43.4167 43.4169 44.9163 41.5137 44.9163H7.48626C5.58313 44.9163 4.08351 43.4167 4.08351 41.5135V19.6057C4.08743 19.3324 4.03645 19.0612 3.9336 18.808C3.83075 18.5548 3.67812 18.3248 3.48475 18.1317C3.29138 17.9385 3.06121 17.7862 2.80788 17.6837C2.55455 17.5811 2.28322 17.5305 2.00996 17.5348ZM26.0286 25.4169C26.8412 25.4169 27.616 25.4804 28.3387 25.6083C27.9522 28.894 26.4113 29.4319 24.9386 29.5135C23.9287 29.553 22.9925 29.3007 22.4318 28.7984C22.0901 28.4922 21.9046 28.111 21.8815 27.6659C21.8298 26.6846 22.648 25.5864 25.1035 25.4435C25.4165 25.4258 25.7251 25.4169 26.0286 25.4169Z" fill="black"/>
</mask>
<g mask="url(#mask0_157_79)">
<rect x="7.48657" y="5.44421" width="36.0691" height="38.7913" fill="black"/>
</g>
</svg>
