<svg width="512" height="512" viewBox="0 0 512 512" fill="none" xmlns="http://www.w3.org/2000/svg">
<g clip-path="url(#clip0_1_6)">
<path d="M498 4.99997C505.406 10.5323 509.543 17.1379 512 26C512.876 32.2293 512.677 38.5507 512.635 44.8257C512.641 46.7249 512.649 48.6241 512.659 50.5233C512.679 55.7179 512.669 60.912 512.654 66.1066C512.642 71.7182 512.66 77.3297 512.674 82.9412C512.696 93.9246 512.691 104.908 512.676 115.891C512.665 124.819 512.664 133.747 512.669 142.675C512.67 143.947 512.671 145.218 512.671 146.528C512.673 149.112 512.675 151.695 512.676 154.278C512.69 177.802 512.676 201.325 512.65 224.848C512.626 246.306 512.628 267.763 512.652 289.221C512.679 313.348 512.689 337.476 512.674 361.604C512.672 364.178 512.671 366.751 512.669 369.325C512.668 370.591 512.668 371.858 512.667 373.162C512.662 382.077 512.67 390.993 512.681 399.908C512.696 410.775 512.692 421.643 512.665 432.51C512.652 438.053 512.647 443.596 512.663 449.138C512.678 454.216 512.67 459.294 512.643 464.371C512.638 466.204 512.641 468.037 512.653 469.87C512.731 482.586 511.73 492.954 502.937 502.937C494.97 510.145 486.431 512.721 475.801 512.524C466.511 512.038 458.693 508.434 452 502C442.133 490.745 442.562 476.654 442.619 462.554C442.616 460.696 442.611 458.838 442.605 456.98C442.592 451.9 442.598 446.819 442.608 441.739C442.615 436.25 442.604 430.761 442.596 425.272C442.583 414.53 442.585 403.787 442.594 393.044C442.601 384.312 442.602 375.579 442.599 366.847C442.598 365.603 442.598 364.359 442.597 363.078C442.596 360.551 442.595 358.024 442.594 355.497C442.586 332.488 442.595 309.479 442.61 286.47C442.624 265.482 442.623 244.494 442.609 223.507C442.593 199.906 442.586 176.306 442.596 152.706C442.597 150.188 442.598 147.671 442.599 145.153C442.599 143.915 442.599 142.676 442.6 141.4C442.603 132.68 442.598 123.96 442.591 115.24C442.583 104.611 442.585 93.981 442.601 83.3514C442.609 77.9302 442.612 72.5091 442.602 67.0879C442.593 62.1211 442.598 57.1546 442.614 52.1878C442.617 50.3952 442.616 48.6027 442.608 46.8101C442.556 32.8183 443.013 19.8366 453 8.99997C455.828 6.59827 458.728 4.73922 462 2.99997C462.59 2.66095 463.181 2.32192 463.789 1.97263C474.261 -3.03257 488.477 -0.896384 498 4.99997ZM466 22C461.389 27.8245 460.85 32.2406 460.869 39.4692C460.867 40.2281 460.864 40.987 460.862 41.7689C460.857 44.3265 460.858 46.8841 460.86 49.4417C460.857 51.2881 460.854 53.1344 460.851 54.9808C460.842 60.0662 460.841 65.1515 460.84 70.2369C460.838 75.7169 460.831 81.1969 460.824 86.6769C460.81 98.6643 460.804 110.652 460.8 122.639C460.797 130.121 460.793 137.603 460.788 145.084C460.776 165.79 460.766 186.496 460.762 207.202C460.762 208.541 460.762 209.88 460.762 211.219C460.762 212.561 460.761 213.903 460.761 215.245C460.761 217.938 460.76 220.631 460.76 223.323C460.76 223.991 460.76 224.659 460.759 225.347C460.756 247 460.74 268.653 460.717 290.306C460.692 313.196 460.678 336.087 460.677 358.977C460.676 371.456 460.67 383.935 460.652 396.414C460.637 407.039 460.632 417.663 460.64 428.288C460.644 433.71 460.643 439.133 460.629 444.555C460.616 449.518 460.617 454.48 460.63 459.442C460.631 461.239 460.628 463.036 460.62 464.833C460.609 467.273 460.616 469.713 460.628 472.153C460.62 472.852 460.613 473.552 460.605 474.272C460.672 480.56 462.3 485.038 466.437 489.812C471.076 493.772 474.521 494.449 480.531 494.316C485.457 493.685 488.146 490.969 491.312 487.375C494.151 483.38 494.144 480.449 494.134 475.68C494.137 474.913 494.139 474.146 494.141 473.356C494.148 470.759 494.148 468.162 494.147 465.564C494.15 463.694 494.154 461.824 494.158 459.954C494.168 454.794 494.172 449.633 494.175 444.473C494.179 438.916 494.188 433.359 494.197 427.802C494.217 414.372 494.227 400.941 494.236 387.511C494.24 381.191 494.245 374.872 494.251 368.553C494.268 347.557 494.282 326.56 494.289 305.564C494.29 304.206 494.29 302.847 494.291 301.489C494.291 300.815 494.291 300.142 494.292 299.448C494.293 296.035 494.294 292.622 494.295 289.209C494.295 288.532 494.296 287.854 494.296 287.156C494.304 265.192 494.327 243.227 494.36 221.263C494.394 198.05 494.414 174.837 494.417 151.624C494.419 138.967 494.428 126.309 494.453 113.652C494.475 102.875 494.483 92.098 494.474 81.3209C494.469 75.8194 494.471 70.3182 494.49 64.8167C494.508 59.7832 494.507 54.7501 494.491 49.7166C494.489 47.8928 494.493 46.0691 494.505 44.2454C494.52 41.7708 494.511 39.2975 494.495 36.823C494.505 36.1109 494.515 35.3989 494.526 34.6653C494.456 29.6651 493.105 26.866 490 23C485.029 18.6203 482.128 17.6379 475.605 17.7226C471.427 18.1674 469.361 19.4458 466 22Z" fill="black"/>
<path d="M385 55C394.562 61.7361 399.366 69.551 401.571 80.8848C402.45 87.2637 402.274 93.7046 402.254 100.131C402.256 101.762 402.259 103.393 402.263 105.023C402.272 109.485 402.268 113.947 402.261 118.409C402.257 123.228 402.264 128.047 402.269 132.867C402.278 142.3 402.276 151.734 402.271 161.167C402.266 168.835 402.265 176.503 402.268 184.171C402.268 185.263 402.268 186.355 402.269 187.48C402.269 189.699 402.27 191.918 402.271 194.136C402.276 214.931 402.27 235.727 402.259 256.522C402.25 274.359 402.252 292.196 402.261 310.033C402.271 330.754 402.276 351.476 402.27 372.198C402.269 374.408 402.268 376.618 402.268 378.829C402.267 380.46 402.267 380.46 402.267 382.124C402.265 389.781 402.268 397.439 402.273 405.096C402.278 414.43 402.277 423.763 402.266 433.097C402.261 437.858 402.259 442.619 402.265 447.379C402.271 451.74 402.268 456.101 402.257 460.462C402.255 462.037 402.256 463.611 402.261 465.186C402.302 479.452 401.409 492.264 391.437 503.312C383.824 510.303 375.135 512.73 364.948 512.599C356.117 512.136 348.571 508.843 342 503C334.284 493.63 331.881 485.051 331.869 472.972C331.867 472.297 331.864 471.623 331.862 470.927C331.857 468.674 331.858 466.421 331.86 464.167C331.857 462.532 331.854 460.897 331.851 459.262C331.842 454.775 331.841 450.287 331.84 445.8C331.838 440.958 331.831 436.116 331.824 431.274C331.81 420.689 331.804 410.104 331.8 399.52C331.797 392.909 331.793 386.298 331.788 379.687C331.776 361.378 331.766 343.069 331.762 324.76C331.762 323.588 331.762 322.417 331.762 321.21C331.762 320.036 331.761 318.862 331.761 317.652C331.761 315.273 331.76 312.894 331.76 310.514C331.76 309.334 331.759 308.154 331.759 306.938C331.755 287.815 331.738 268.693 331.714 249.57C331.691 229.93 331.678 210.29 331.677 190.65C331.676 179.626 331.67 168.602 331.652 157.578C331.637 148.19 331.632 138.803 331.64 129.416C331.644 124.629 331.643 119.842 331.629 115.054C331.616 110.667 331.617 106.279 331.63 101.891C331.631 100.309 331.628 98.727 331.62 97.1449C331.55 83.6616 332.454 71.1284 341.973 60.875C353.657 49.6642 370.519 46.8226 385 55ZM354.25 74.8125C350.56 80.0397 349.75 84.5555 349.746 90.8848C349.742 91.5562 349.739 92.2277 349.736 92.9194C349.728 95.1675 349.733 97.4153 349.739 99.6634C349.736 101.292 349.732 102.921 349.728 104.55C349.717 109.024 349.72 113.499 349.724 117.974C349.726 122.8 349.717 127.626 349.71 132.452C349.697 141.907 349.695 151.362 349.698 160.817C349.699 168.501 349.698 176.185 349.693 183.87C349.693 184.963 349.692 186.056 349.692 187.182C349.69 189.403 349.689 191.623 349.688 193.844C349.677 214.676 349.679 235.507 349.685 256.338C349.691 275.399 349.679 294.46 349.66 313.521C349.641 333.088 349.633 352.656 349.636 372.223C349.638 383.211 349.636 394.198 349.622 405.185C349.61 414.539 349.608 423.892 349.62 433.246C349.626 438.019 349.627 442.791 349.615 447.564C349.605 451.934 349.608 456.303 349.622 460.673C349.624 462.253 349.622 463.833 349.614 465.413C349.403 478.554 349.403 478.554 355.437 489.875C360.087 493.731 363.5 494.458 369.465 494.309C373.63 493.802 375.663 492.603 379 490C383.503 484.207 384.124 478.405 384.129 471.285C384.13 470.62 384.132 469.955 384.134 469.269C384.139 467.036 384.136 464.804 384.134 462.571C384.136 460.955 384.138 459.34 384.141 457.724C384.147 453.281 384.147 448.839 384.145 444.396C384.145 439.606 384.151 434.816 384.155 430.026C384.164 420.64 384.166 411.253 384.167 401.867C384.168 394.239 384.17 386.61 384.173 378.982C384.182 357.36 384.186 335.737 384.185 314.115C384.185 312.366 384.185 312.366 384.185 310.582C384.185 308.831 384.185 308.831 384.185 307.044C384.185 288.122 384.194 269.201 384.208 250.279C384.223 230.856 384.23 211.433 384.229 192.01C384.229 181.103 384.231 170.197 384.242 159.29C384.251 150.004 384.253 140.718 384.247 131.432C384.243 126.694 384.243 121.956 384.252 117.218C384.26 112.879 384.258 108.541 384.25 104.203C384.248 102.634 384.25 101.066 384.255 99.497C384.585 84.7762 384.585 84.7762 377.566 72.4102C373.785 69.0058 370.004 68.5935 364.984 68.7539C360.241 69.3421 357.52 71.4683 354.25 74.8125Z" fill="#EF7C02"/>
<path d="M279 161C287.111 168.416 290.486 178.038 291.182 188.827C291.256 191.97 291.267 195.108 291.254 198.252C291.257 199.449 291.26 200.646 291.263 201.88C291.27 205.177 291.268 208.474 291.261 211.77C291.257 215.336 291.264 218.902 291.269 222.468C291.278 229.443 291.276 236.419 291.271 243.394C291.266 249.066 291.265 254.738 291.268 260.41C291.268 261.218 291.268 262.027 291.269 262.86C291.269 264.503 291.27 266.146 291.271 267.789C291.276 283.18 291.27 298.572 291.259 313.963C291.25 327.154 291.252 340.345 291.261 353.536C291.271 368.873 291.276 384.209 291.27 399.545C291.269 401.182 291.268 402.819 291.268 404.456C291.267 405.664 291.267 405.664 291.267 406.897C291.265 412.558 291.268 418.219 291.273 423.88C291.278 430.785 291.277 437.69 291.266 444.594C291.261 448.114 291.259 451.633 291.265 455.152C291.271 458.975 291.264 462.798 291.254 466.621C291.258 467.722 291.263 468.823 291.267 469.958C291.206 482.082 289.776 492.502 281.5 501.812C280.263 502.895 280.263 502.895 279 504C278.278 504.681 277.556 505.361 276.813 506.062C268.019 512.12 258.456 513.517 248 512C237.188 508.964 230.528 503.653 225 494C220.845 485.304 220.853 476.572 220.866 467.102C220.864 465.907 220.862 464.711 220.859 463.48C220.854 460.174 220.853 456.869 220.855 453.563C220.855 449.993 220.849 446.423 220.845 442.853C220.836 435.864 220.834 428.874 220.833 421.885C220.832 416.202 220.83 410.519 220.827 404.836C220.818 388.714 220.814 372.592 220.815 356.47C220.815 355.602 220.815 354.733 220.815 353.838C220.815 352.968 220.815 352.099 220.815 351.203C220.815 337.11 220.806 323.017 220.792 308.924C220.777 294.443 220.77 279.963 220.771 265.483C220.771 257.357 220.769 249.231 220.758 241.106C220.749 234.187 220.747 227.269 220.753 220.351C220.757 216.823 220.757 213.296 220.748 209.769C220.739 205.939 220.745 202.109 220.753 198.279C220.748 197.173 220.742 196.067 220.737 194.927C220.791 182.714 222.753 171.94 231.176 162.668C245.122 149.916 264.168 150.009 279 161ZM242.625 177.312C238.487 184.156 238.713 191.05 238.739 198.829C238.735 200.017 238.732 201.205 238.728 202.429C238.719 205.713 238.72 208.998 238.724 212.283C238.726 215.83 238.717 219.377 238.71 222.925C238.697 229.87 238.695 236.815 238.698 243.76C238.699 249.406 238.698 255.052 238.693 260.699C238.693 261.503 238.692 262.307 238.692 263.135C238.69 264.769 238.689 266.402 238.688 268.036C238.677 283.351 238.679 298.666 238.685 313.98C238.691 327.984 238.679 341.987 238.66 355.99C238.641 370.376 238.633 384.763 238.636 399.149C238.638 407.223 238.636 415.297 238.622 423.37C238.61 430.244 238.608 437.117 238.62 443.99C238.626 447.495 238.627 451 238.615 454.505C238.605 458.309 238.613 462.113 238.626 465.917C238.618 467.019 238.611 468.12 238.603 469.254C238.658 477.002 239.366 483.826 244.438 489.937C249.12 493.706 252.52 494.457 258.465 494.309C262.63 493.802 264.663 492.603 268 490C272.073 484.76 273.122 479.353 273.131 472.865C273.137 471.338 273.137 471.338 273.143 469.78C273.142 468.669 273.141 467.557 273.14 466.412C273.143 465.226 273.146 464.039 273.149 462.817C273.157 459.528 273.159 456.239 273.16 452.95C273.162 449.401 273.169 445.852 273.176 442.303C273.19 434.545 273.196 426.786 273.2 419.028C273.203 414.182 273.207 409.337 273.212 404.491C273.224 391.071 273.234 377.651 273.238 364.231C273.238 363.372 273.238 362.513 273.238 361.629C273.238 360.768 273.239 359.907 273.239 359.021C273.239 357.277 273.24 355.533 273.24 353.789C273.241 352.491 273.241 352.491 273.241 351.167C273.245 337.151 273.262 323.135 273.286 309.118C273.309 294.723 273.322 280.327 273.323 265.932C273.324 257.852 273.33 249.771 273.348 241.691C273.363 234.81 273.368 227.929 273.36 221.049C273.356 217.54 273.357 214.031 273.371 210.522C273.384 206.713 273.378 202.905 273.368 199.096C273.376 197.993 273.384 196.891 273.392 195.755C273.349 189.114 273.164 181.728 268.654 176.415C264.849 173.05 261.171 171.289 256.188 170.625C250.722 171.268 246.553 173.488 242.625 177.312Z" fill="#EF7C02"/>
<path d="M165 261C172.879 266.655 177.936 274.638 179.531 284.172C180.019 288.156 180.142 292.058 180.134 296.064C180.136 296.846 180.138 297.629 180.141 298.436C180.147 301.044 180.146 303.653 180.145 306.261C180.148 308.137 180.152 310.014 180.155 311.89C180.164 316.977 180.167 322.064 180.167 327.151C180.168 330.332 180.17 333.513 180.173 336.694C180.182 347.799 180.186 358.905 180.185 370.01C180.185 380.349 180.195 390.688 180.211 401.026C180.224 409.914 180.229 418.802 180.229 427.689C180.229 432.993 180.231 438.296 180.242 443.599C180.252 448.589 180.252 453.578 180.245 458.568C180.243 460.394 180.246 462.22 180.252 464.046C180.296 478.142 180.326 490.758 170.5 501.812C169.675 502.534 168.85 503.256 168 504C167.278 504.681 166.556 505.361 165.812 506.062C156.805 512.267 147.636 513.171 137 512C128.154 509.873 121.39 505.329 116 498C111.243 489.227 109.845 480.921 109.866 471.012C109.864 470.238 109.862 469.463 109.859 468.664C109.853 466.084 109.854 463.503 109.855 460.923C109.852 459.066 109.848 457.209 109.845 455.352C109.836 450.319 109.833 445.286 109.833 440.253C109.832 437.106 109.83 433.958 109.827 430.811C109.818 419.822 109.814 408.833 109.815 397.844C109.815 387.615 109.805 377.385 109.789 367.155C109.776 358.361 109.771 349.567 109.771 340.772C109.771 335.525 109.769 330.278 109.758 325.031C109.748 320.093 109.748 315.156 109.755 310.219C109.757 308.413 109.754 306.606 109.748 304.799C109.701 289.922 110.079 276.304 120.562 264.687C132.96 253.306 150.771 252.72 165 261ZM133 278C128.285 284.066 127.851 290.265 127.86 297.678C127.857 298.444 127.854 299.209 127.851 299.998C127.842 302.56 127.84 305.121 127.839 307.683C127.834 309.521 127.829 311.359 127.824 313.198C127.811 318.189 127.804 323.181 127.8 328.173C127.797 331.294 127.793 334.414 127.788 337.534C127.775 347.301 127.765 357.069 127.761 366.836C127.757 378.102 127.739 389.369 127.71 400.635C127.688 409.35 127.678 418.064 127.677 426.778C127.676 431.98 127.67 437.182 127.652 442.384C127.636 447.28 127.634 452.175 127.642 457.07C127.643 458.863 127.639 460.655 127.629 462.448C127.2 477.103 127.2 477.103 133.438 489.937C138.12 493.706 141.52 494.457 147.465 494.309C151.63 493.802 153.663 492.603 157 490C161.507 484.077 162.149 478.572 162.14 471.36C162.143 470.586 162.146 469.812 162.149 469.015C162.158 466.421 162.16 463.826 162.161 461.231C162.166 459.372 162.171 457.512 162.176 455.653C162.189 450.599 162.196 445.545 162.2 440.491C162.203 437.333 162.207 434.175 162.212 431.017C162.225 421.135 162.235 411.253 162.239 401.371C162.243 389.967 162.261 378.562 162.29 367.158C162.312 358.34 162.322 349.523 162.323 340.706C162.324 335.441 162.33 330.176 162.348 324.911C162.364 319.956 162.366 315.002 162.358 310.048C162.357 308.232 162.361 306.417 162.371 304.601C162.384 302.117 162.378 299.633 162.367 297.148C162.376 296.435 162.384 295.722 162.392 294.987C162.328 288.427 160.796 283.118 156.562 278.125C151.913 274.269 148.5 273.542 142.535 273.691C138.37 274.198 136.337 275.397 133 278Z" fill="#EF7C02"/>
<path d="M55.3125 381.75C63.5561 388.473 67.5145 396.621 69 407C69.0988 409.427 69.148 411.855 69.1611 414.284C69.1686 415.339 69.1686 415.339 69.1762 416.415C69.1907 418.727 69.1976 421.039 69.2031 423.352C69.2074 424.546 69.2074 424.546 69.2117 425.764C69.2267 429.979 69.2359 434.194 69.2402 438.41C69.2457 442.733 69.2697 447.057 69.2982 451.38C69.317 454.731 69.3221 458.082 69.3236 461.434C69.3266 463.026 69.3345 464.618 69.3478 466.21C69.4534 479.885 68.6907 492.485 59 503C56.1718 505.402 53.2719 507.261 50 509C49.4096 509.339 48.8192 509.678 48.2109 510.027C40.6327 513.65 30.6205 513.103 22.6133 511.191C13.4002 507.782 6.46765 501.866 2.28541 492.907C-1.12081 484.323 -0.70261 475.642 -0.628897 466.551C-0.629728 464.684 -0.632194 462.817 -0.636206 460.95C-0.639049 457.057 -0.624509 453.166 -0.596915 449.273C-0.562763 444.304 -0.568888 439.335 -0.587577 434.365C-0.59818 430.518 -0.589179 426.67 -0.574191 422.822C-0.569038 420.99 -0.569459 419.158 -0.57574 417.326C-0.61475 399.123 -0.614748 399.123 4.00001 392C4.77731 390.695 4.77731 390.695 5.57032 389.363C10.9636 382.249 17.9574 376.971 26.8828 375.25C37.4669 374 46.4382 375.575 55.3125 381.75ZM20.5625 399.563C17.8475 403.798 17.8415 407.541 17.823 412.406C17.8164 413.157 17.8099 413.909 17.8031 414.683C17.7834 417.17 17.7717 419.657 17.7617 422.145C17.7577 422.995 17.7536 423.845 17.7494 424.721C17.7285 429.221 17.7142 433.722 17.7048 438.222C17.6938 442.866 17.6594 447.509 17.6197 452.153C17.5935 455.728 17.5852 459.302 17.5816 462.877C17.5767 464.589 17.5651 466.301 17.5465 468.012C17.5221 470.411 17.5231 472.808 17.53 475.206C17.5172 475.909 17.5044 476.612 17.4912 477.337C17.5439 482.343 18.8923 485.131 22 489C26.9715 493.38 29.872 494.362 36.3945 494.277C40.5733 493.833 42.6392 492.554 46 490C50.5287 484.28 51.1219 480.218 51.1611 473.064C51.1661 472.374 51.1711 471.684 51.1762 470.973C51.1908 468.695 51.1976 466.418 51.2031 464.141C51.2089 462.551 51.2146 460.962 51.2204 459.373C51.2309 456.04 51.2368 452.708 51.2402 449.376C51.2457 445.121 51.2697 440.867 51.2982 436.613C51.3169 433.329 51.322 430.045 51.3236 426.76C51.3266 425.193 51.3346 423.625 51.3478 422.058C51.7574 409.195 51.7574 409.195 46.2813 397.941C45.6934 397.486 45.1056 397.031 44.5 396.563C43.9122 396.089 43.3244 395.616 42.7188 395.129C35.0519 390.093 26.3239 393.506 20.5625 399.563Z" fill="#EF7C02"/>
</g>
<defs>
<clipPath id="clip0_1_6">
<rect width="512" height="512" fill="white"/>
</clipPath>
</defs>
</svg>
